<?xml version="1.0" encoding="UTF-8"?>
<svg width="377px" height="70px" viewBox="0 0 377 70" version="1.1" xmlns="http://www.w3.org/2000/svg" xmlns:xlink="http://www.w3.org/1999/xlink">
    <!-- Generator: Sketch 50.2 (55047) - http://www.bohemiancoding.com/sketch -->
    <title>Group 10</title>
    <desc>Created with Sketch.</desc>
    <defs></defs>
    <g id="Page-1" stroke="none" stroke-width="1" fill="none" fill-rule="evenodd">
        <g id="Ultrastore-Project-Page" transform="translate(-531.000000, -451.000000)" fill="#000000">
            <g id="intro" transform="translate(-119.000000, 70.000000)">
                <g id="Group-10" transform="translate(650.000000, 381.000000)">
                    <polygon id="Fill-3" points="47 69 58 69 58 0 47 0"></polygon>
                    <path d="M366.251489,42.4893916 C366.259585,42.5497993 366.241594,42.610207 366.203814,42.6557452 C366.165134,42.7012833 366.109363,42.7273051 366.050894,42.7273051 L343.656139,42.7273051 C343.597669,42.7273051 343.542798,42.7012833 343.503218,42.6557452 C343.465438,42.610207 343.449246,42.5497993 343.455543,42.4893916 C344.027646,37.3259249 348.810459,33.2014711 355.152161,33.2014711 C361.218606,33.2014711 365.540859,37.2116149 366.251489,42.4893916 M332,46.5125462 C332,59.902616 341.88496,70 354.992944,70 C364.143885,70 371.661276,66.0242422 375.148763,59.3552291 L373.781474,58.6015265 C371.415704,57.300437 368.972574,55.9538093 366.784912,54.7094102 C364.798745,58.2530204 360.590733,60.4453562 355.744053,60.4453562 C349.082117,60.4453562 343.453744,55.9166354 343.453744,50.5552172 C343.453744,50.4399779 343.543697,50.3470429 343.656139,50.3470429 L376.829988,50.3470429 C376.915444,49.3071006 377,47.617543 377,46.4883831 C377,32.8780575 367.759105,23 355.026226,23 C341.899352,23 332,33.1085362 332,46.5125462" id="Fill-5"></path>
                    <path d="M18.9562493,60.2106557 C14.0606766,60.2106557 11.0188724,57.1211865 11.0188724,52.1463346 L11.0188724,24 L0,24 L0,52.2371741 C0,63.1926007 7.26262315,70 18.9562493,70 C30.7030979,70 38,63.1926007 38,52.2371741 L38,24 L26.9802255,24 L26.9802255,52.1463346 C26.9802255,57.1211865 23.9050445,60.2106557 18.9562493,60.2106557" id="Fill-6"></path>
                    <path d="M84.488378,24.2835936 L84.488378,8 L73.5989938,8 L73.5989938,24.2835936 C73.5989938,24.3995776 73.5098389,24.4931131 73.3983952,24.4931131 L65,24.4931131 L65,33.6418194 L73.3983952,33.6418194 C73.5098389,33.6418194 73.5989938,33.7362903 73.5989938,33.8513389 L73.5989938,70 L84.488378,70 L84.488378,33.8513389 C84.488378,33.7362903 84.577533,33.6418194 84.6880851,33.6418194 L93,33.6418194 L93,24.4931131 L84.6880851,24.4931131 C84.577533,24.4931131 84.488378,24.3995776 84.488378,24.2835936" id="Fill-7"></path>
                    <path d="M112.554699,30.2124693 C112.509531,30.2931125 112.421961,30.3338976 112.321485,30.3079434 C112.232993,30.2829162 112.170311,30.2004191 112.170311,30.1067989 L112.170311,23.9028332 L101,23.9028332 L101,69 L112.170311,69 L112.170311,49.0709306 C112.170311,42.8586225 113.671915,38.464031 116.630876,36.011365 C118.974079,34.0703663 122.208657,33.4150244 126,34.0991013 L126,23.0621045 C125.533572,23 125.05516,23 124.590576,23 C119.25707,23 115.433465,25.2923065 112.554699,30.2124693" id="Fill-8"></path>
                    <path d="M165.402128,46.5 C165.402128,53.8216592 159.711159,59.7776203 152.718194,59.7776203 C145.556767,59.7776203 139.946445,53.9447201 139.946445,46.5 C139.946445,39.1052445 145.556767,33.3121309 152.718194,33.3121309 C159.831233,33.3121309 165.402128,39.1052445 165.402128,46.5 M150.534461,23 C138.659682,23 129,33.542523 129,46.5 C129,59.457477 138.659682,70 150.534461,70 C156.71827,70 161.796324,67.6896015 165.218432,63.3177022 C165.270405,63.2510828 165.356428,63.2233247 165.437971,63.2492322 C165.516825,63.2769903 165.571486,63.3510119 165.576862,63.437062 L165.829555,69.097862 L176,69.097862 L176,24.0825656 L165.053555,24.0825656 L165.053555,29.0124026 C165.053555,29.0993779 165.001582,29.1771006 164.922728,29.2076345 C164.841185,29.2390936 164.755162,29.2150366 164.699605,29.1484172 C161.348287,25.1262698 156.449448,23 150.534461,23" id="Fill-9"></path>
                    <path d="M202.68591,41.6290909 L202.017324,41.412668 C197.068327,39.8001779 194.080271,38.827668 194.080271,35.7308696 C194.080271,33.2786957 196.061333,31.6318379 199.008232,31.6318379 C201.911228,31.6318379 205.261473,33.2526877 208.005326,35.9798024 L214.495454,29.3022727 C210.836068,25.2942688 205.333728,23 199.364932,23 C188.119707,23 183.085651,29.8939526 183.085651,36.7266008 C183.085651,44.0868379 187.943186,47.3378261 195.780546,50.1959091 C196.434497,50.4271937 197.064669,50.6436166 197.666487,50.850751 C202.032872,52.3517787 204.916662,53.3437945 204.916662,56.2724704 C204.916662,58.9531423 202.487437,60.8238538 199.008232,60.8238538 C195.464088,60.8238538 191.357454,58.8583992 188.239522,55.6789328 L182,63.406996 C186.152365,67.5394664 192.627858,70 199.364932,70 C209.625114,70 216,64.601502 216,55.9102174 C216,46.8910474 209.422984,43.9112846 202.68591,41.6290909" id="Fill-10"></path>
                    <path d="M238.48892,24.2835936 L238.48892,8 L227.596663,8 L227.596663,24.2835936 C227.596663,24.3995776 227.507514,24.4931131 227.396969,24.4931131 L219,24.4931131 L219,33.6418194 L227.396969,33.6418194 C227.507514,33.6418194 227.596663,33.7362903 227.596663,33.8513389 L227.596663,70 L238.48892,70 L238.48892,33.8513389 C238.48892,33.7362903 238.578069,33.6418194 238.688614,33.6418194 L247,33.6418194 L247,24.4931131 L238.688614,24.4931131 C238.578069,24.4931131 238.48892,24.3995776 238.48892,24.2835936" id="Fill-11"></path>
                    <path d="M273.544739,59.5568972 C266.296973,59.5568972 260.620561,53.8221542 260.620561,46.5 C260.620561,39.228004 266.296973,33.5322727 273.544739,33.5322727 C280.524983,33.5322727 286.203221,39.3487549 286.203221,46.5 C286.203221,53.7004743 280.524983,59.5568972 273.544739,59.5568972 M273.544739,23 C260.342082,23 250,33.3223518 250,46.5 C250,59.6776482 260.342082,70 273.544739,70 C286.698092,70 297,59.6776482 297,46.5 C297,33.3223518 286.698092,23 273.544739,23" id="Fill-12"></path>
                    <path d="M315.554699,30.2124693 C315.509531,30.2931125 315.420117,30.3338976 315.322407,30.3079434 C315.232993,30.2829162 315.170311,30.2004191 315.170311,30.1067989 L315.170311,23.9028332 L304,23.9028332 L304,69 L315.170311,69 L315.170311,49.0709306 C315.170311,42.8567686 316.670071,38.464031 319.630876,36.011365 C321.973157,34.0694394 325.21511,33.4122436 329,34.0991013 L329,23.0621045 C328.533572,23 328.05516,23 327.590576,23 C322.25707,23 318.433465,25.2923065 315.554699,30.2124693" id="Fill-13"></path>
                </g>
            </g>
        </g>
    </g>
</svg>