<?xml version="1.0" encoding="UTF-8"?>
<svg width="1440px" height="774px" viewBox="0 0 1440 774" version="1.1" xmlns="http://www.w3.org/2000/svg" xmlns:xlink="http://www.w3.org/1999/xlink">
    <!-- Generator: Sketch 50.2 (55047) - http://www.bohemiancoding.com/sketch -->
    <title>Fill 1</title>
    <desc>Created with Sketch.</desc>
    <defs>
        <filter x="-5.6%" y="-10.3%" width="111.2%" height="121.0%" filterUnits="objectBoundingBox" id="filter-1">
            <feOffset dx="0" dy="2" in="SourceAlpha" result="shadowOffsetOuter1"></feOffset>
            <feGaussianBlur stdDeviation="30" in="shadowOffsetOuter1" result="shadowBlurOuter1"></feGaussianBlur>
            <feColorMatrix values="0 0 0 0 1   0 0 0 0 1   0 0 0 0 1  0 0 0 0.1 0" type="matrix" in="shadowBlurOuter1" result="shadowMatrixOuter1"></feColorMatrix>
            <feMerge>
                <feMergeNode in="shadowMatrixOuter1"></feMergeNode>
                <feMergeNode in="SourceGraphic"></feMergeNode>
            </feMerge>
        </filter>
    </defs>
    <g id="Page-1" stroke="none" stroke-width="1" fill="none" fill-rule="evenodd">
        <g id="Ultrastore-Project-Page" transform="translate(0.000000, -6587.000000)" fill="#56E8FA">
            <g id="Group-2-Copy-8" transform="translate(-95.000000, 6274.000000)">
                <g id="Browser-Copy-2" filter="url(#filter-1)" transform="translate(0.000000, 159.000000)">
                    <path d="M1615.91809,170 C1598.66424,187.298748 1581.38909,204.575088 1563.85051,221.572453 C1533.41415,251.071075 1502.11352,279.70364 1469.00702,306.185066 C1434.83673,331.55843 1398.63638,354.297769 1359.97439,372.146626 C1334.03869,382.0161 1307.26227,389.410642 1279.91976,394.167798 C1257.10481,396.335743 1234.18786,396.578867 1211.35498,394.601387 C1195.11897,391.617801 1179.16992,387.415236 1163.61993,381.863727 C1152.23992,376.294292 1141.29821,369.946189 1130.8273,362.810456 C1112.46594,346.862892 1095.97658,328.878469 1078.54786,311.919197 C1062.27037,296.080311 1044.84053,282.356713 1026.64507,268.648799 C1008.32519,254.846774 988.434834,246.167149 966.944868,237.862854 C961.399468,235.720677 955.813713,233.812661 949.999282,232.5287 C934.144393,229.026376 917.31875,226.50999 901.007629,226.317284 C885.033918,226.129059 868.614064,228.938986 853.046141,231.934896 C845.521121,233.382433 838.42431,235.867448 831.345433,238.738995 C816.828973,244.62886 801.721765,250.259917 788.377831,258.715464 C774.299667,267.635971 760.946765,278.233695 748.425618,289.170896 C730.752528,304.608684 716.086979,324.294973 702.925762,343.45356 C701.194996,345.972186 699.515795,348.522183 697.880311,351.099069 C689.513449,334.497201 678.604245,319.099746 664.685258,305.506112 C655.111119,296.154257 643.796127,287.936231 632.893649,280.396039 C628.135164,277.104347 623.154729,274.316828 617.908626,271.885592 C600.459728,263.799772 582.728348,255.763249 563.622669,252.791987 C523.158175,246.498783 482.33049,245.35599 443.294102,260.279522 C422.58993,268.193923 401.794961,276.856742 383.203803,289.081265 C365.089053,300.993201 347.917033,314.635011 331.501663,328.777634 C309.984794,347.314408 290.125827,367.851069 270.336361,388.189422 C228.653381,431.030713 188.714619,475.566026 150.635533,521.636266 C102.872455,579.423496 57.3804459,639.262151 14.8836479,701.027868 C-0.699968571,723.677576 -3.36113283,760.639085 3.71886442,786.331759 C10.7932569,812.010989 30.658949,839.839117 54.619516,852.492748 C80.3254211,866.067335 111.465751,872.871435 139.968457,863.652905 C148.787066,859.932106 157.606797,856.212427 166.426528,852.492748 C183.070574,842.651284 196.315864,829.412812 206.162396,812.777332 C226.679367,782.957159 247.903665,753.640039 269.818476,724.836055 C304.29479,680.807156 340.35166,638.028607 378.037288,596.705438 C397.980326,574.837759 418.359419,553.367817 439.165598,532.31914 C455.799557,515.489833 472.525433,498.636998 490.588618,483.329175 C493.150017,481.572411 495.750649,479.88287 498.374822,478.231422 C497.806494,490.241952 497.343537,502.250241 498.36137,514.256289 C500.02712,533.906726 501.892401,555.210851 508.621537,574.100546 C518.982591,603.180144 530.438825,624.312851 550.975973,647.468973 C559.958243,657.597255 571.995135,666.18949 583.14983,673.394687 C594.783176,680.90799 608.498148,686.131226 621.560721,690.436867 C628.77075,692.814324 636.647751,693.301692 644.047222,694.295474 C650.647448,695.181698 658.179193,696.678533 665.135884,696.812979 C672.135172,696.948546 679.333992,695.466276 686.121418,694.554283 C693.729388,693.532491 701.898961,693.009271 709.40044,690.814437 C759.167798,676.25279 795.620368,641.161204 824.125316,599.419011 C832.303856,587.443213 838.414221,574.49156 844.08629,561.193708 C852.047363,542.52921 859.668785,523.74147 867.400062,504.991823 C874.465486,489.059945 882.255053,473.448498 891.795562,458.88573 C894.591242,455.828199 897.47884,452.86366 900.483019,450.012279 C902.040036,450.970209 903.579117,451.958388 905.105867,452.967856 C926.146328,471.334331 944.744211,492.326989 965.193925,511.35001 C999.388877,543.157746 1036.23042,566.961451 1078.92899,584.970523 C1122.83932,603.491612 1166.73732,612.496148 1214.43651,616.327865 C1256.87501,619.737197 1299.76639,614.696584 1341.51439,607.23818 C1419.44368,593.316273 1494.40466,557.656652 1559.22879,512.901743 C1583.76889,495.959278 1607.36514,477.880742 1630.27649,458.991047 C1626.04598,382.094526 1622.01276,305.186803 1618.48509,228.25331 C1617.59505,208.837034 1616.73975,189.419637 1615.91809,170 Z" id="Fill-1"></path>
                </g>
            </g>
        </g>
    </g>
</svg>