<?xml version="1.0" encoding="UTF-8"?>
<svg width="1440px" height="1001px" viewBox="0 0 1440 1001" version="1.1" xmlns="http://www.w3.org/2000/svg" xmlns:xlink="http://www.w3.org/1999/xlink">
    <!-- Generator: Sketch 50.2 (55047) - http://www.bohemiancoding.com/sketch -->
    <title>Abstract</title>
    <desc>Created with Sketch.</desc>
    <defs>
        <filter x="-3.6%" y="-8.6%" width="107.1%" height="117.7%" filterUnits="objectBoundingBox" id="filter-1">
            <feOffset dx="0" dy="2" in="SourceAlpha" result="shadowOffsetOuter1"></feOffset>
            <feGaussianBlur stdDeviation="30" in="shadowOffsetOuter1" result="shadowBlurOuter1"></feGaussianBlur>
            <feColorMatrix values="0 0 0 0 1   0 0 0 0 1   0 0 0 0 1  0 0 0 0.1 0" type="matrix" in="shadowBlurOuter1" result="shadowMatrixOuter1"></feColorMatrix>
            <feMerge>
                <feMergeNode in="shadowMatrixOuter1"></feMergeNode>
                <feMergeNode in="SourceGraphic"></feMergeNode>
            </feMerge>
        </filter>
        <linearGradient x1="73.5116555%" y1="0%" x2="14.5089138%" y2="69.4399916%" id="linearGradient-2">
            <stop stop-color="#2B6EFD" offset="0%"></stop>
            <stop stop-color="#3C3C3C" offset="100%"></stop>
        </linearGradient>
    </defs>
    <g id="Page-1" stroke="none" stroke-width="1" fill="none" fill-rule="evenodd">
        <g id="Ultrastore-Project-Page" transform="translate(0.000000, -7726.000000)" fill="url(#linearGradient-2)">
            <g id="Group-2-Copy-9" transform="translate(-554.000000, 7480.000000)">
                <g id="Browser-Copy-2" filter="url(#filter-1)" transform="translate(0.000000, 159.000000)">
                    <path d="M2546.9188,384.214713 C2546.9188,350.903442 2532.12385,311.112815 2507.13903,288.177928 C2481.25602,264.417276 2447.27472,246.777423 2411.10225,248.398167 C2399.06709,250.015289 2387.03194,251.632412 2374.99678,253.249534 C2355.16937,258.810769 2337.60015,268.234626 2322.27461,281.504808 C2312.05577,288.208713 2301.46389,294.275185 2290.5044,299.700604 C2271.52087,306.418996 2252.04115,311.424288 2232.22824,315.008034 C2191.35108,318.727596 2150.2385,317.329591 2109.44465,312.842213 C2040.1438,301.911697 1972.46008,283.007845 1904.02303,267.75293 C1854.16749,256.637704 1803.99686,248.414465 1753.23044,242.572543 C1713.22432,237.969267 1672.71658,236.631021 1632.62354,240.957231 C1585.98957,245.987876 1540.05098,253.066634 1496.10256,269.822774 C1456.85701,284.784325 1418.29054,301.873668 1382.79896,324.455433 C1376.91177,328.200348 1371.0952,332.066592 1365.31484,335.987163 C1366.27824,328.964542 1367.24163,321.943732 1368.20321,314.922922 C1369.82033,302.887765 1371.43745,290.852608 1373.05458,278.817452 C1371.43745,266.782295 1369.82033,254.747138 1368.20321,242.711981 C1360.33128,214.123503 1342.70954,190.069488 1319.53199,172.161623 C1311.05885,163.744619 1301.07,157.924428 1289.56543,154.697426 C1278.97355,148.554897 1267.54866,145.463712 1255.29077,145.425684 C1243.25561,142.191439 1231.22045,142.191439 1219.1853,145.425684 C1201.11083,146.246015 1184.27863,151.618918 1168.6887,161.54258 C1046.46287,239.0558 929.58639,325.884223 820.054873,421.039106 C818.805361,412.549666 817.081396,404.163447 814.488205,396.195543 C809.037435,379.443025 802.235742,361.526106 792.306647,346.707616 C777.558781,324.696281 764.1057,310.540575 743.988553,294.995919 C723.04383,278.815641 709.759161,272.280149 682.802293,262.586469 C665.097248,256.2212 645.210084,254.696433 626.760764,253.026795 C619.189445,252.340469 611.797403,252.595804 604.256868,253.452353 C586.189646,255.5059 566.869289,256.778953 549.426823,262.807397 C521.819847,272.347151 495.502222,284.355145 472.216022,301.924373 C430.980308,333.035417 393.266769,367.838859 354.83793,402.274692 C322.826876,430.959147 290.815821,459.643601 258.804767,488.328056 C185.795224,553.749981 112.787493,619.171905 39.7797609,684.59383 C14.7098374,707.059698 0,747.737659 0,780.630615 C0,813.941887 14.79676,853.732513 39.7797609,876.667401 C65.6627728,900.428053 99.6440727,918.067906 135.816546,916.447162 C172.952412,914.782956 203.989209,901.635914 231.853331,876.667401 C299.806877,815.774505 367.760422,754.881609 435.713967,693.990524 L495.78472,640.1619 C495.572846,640.830117 495.360972,641.498335 495.149099,642.166552 C472.545604,713.497402 449.942109,784.828252 427.338613,856.159102 L422.487246,892.264573 C421.781,910.963795 425.679841,928.406261 434.183767,944.591972 C445.193962,970.683236 464.003648,995.932437 489.754465,1009.53763 C511.09215,1020.81222 534.193639,1027.00183 558.303793,1028.08112 C577.003015,1028.78555 594.445481,1024.88671 610.631191,1016.3846 C627.468821,1010.90666 642.03741,1001.54619 654.340578,988.301358 C761.641082,851.863678 881.954622,725.795138 1013.32906,612.34486 C1029.08921,598.736042 1045.04132,585.357207 1061.11113,572.119621 L1042.43726,708.314643 C1036.77643,726.367378 1035.96877,744.420113 1040.01067,762.472849 C1040.83101,780.547315 1046.20391,797.379512 1056.12938,812.96944 C1063.20814,822.13253 1070.2869,831.29562 1077.36566,840.456899 C1089.66702,853.701728 1104.23741,863.062204 1121.07504,868.540139 C1148.06089,879.928809 1180.84881,884.660657 1209.50791,875.385292 L1241.95177,861.694985 C1262.36047,849.619988 1278.60232,833.37814 1290.6755,812.96944 C1312.83171,781.153962 1335.2523,749.517761 1358.61275,718.57513 C1399.0553,667.419375 1442.88058,618.675722 1493.28301,577.197349 C1517.75534,559.523089 1543.56229,543.875212 1570.81977,530.91107 C1593.45767,522.546582 1616.67686,516.21572 1640.41579,511.894943 C1676.85265,508.742188 1713.39273,509.944617 1749.76078,513.865188 C1839.54638,528.089708 1926.55771,555.452215 2016.03365,571.319209 C2120.19407,589.788448 2225.78872,597.417716 2329.59602,571.674143 C2362.11413,563.610262 2393.43886,550.52479 2423.64083,536.260431 C2454.44584,521.711763 2480.4031,501.259602 2507.13903,480.251498 C2520.38386,467.950141 2529.74434,453.379742 2535.22227,436.542112 C2543.72439,420.356402 2547.62504,402.913935 2546.9188,384.214713" id="Abstract"></path>
                </g>
            </g>
        </g>
    </g>
</svg>