<svg id="intro-svg" width="1440px" height="972px" viewBox="0 0 1440 972" version="1.1" xmlns="http://www.w3.org/2000/svg" xmlns:xlink="http://www.w3.org/1999/xlink">
    <defs>
        <path d="M1851.23477,445.31476 C1849.35541,431.001112 1847.47605,416.686327 1845.59557,402.372679 C1838.09588,375.007483 1824.56514,351.247963 1805.00222,331.091847 C1794.35324,322.672923 1783.70426,314.253998 1773.05528,305.833938 C1748.43596,291.221521 1721.87955,283.87044 1693.38606,283.77956 C1577.74253,271.827663 1461.17208,259.800791 1344.91912,269.641992 C1285.28904,274.690393 1225.90539,284.054473 1168.02812,299.748366 C1138.93075,307.637912 1110.23966,317.119 1082.20574,328.346126 C1068.0811,334.003425 1054.12409,340.100357 1040.3691,346.643739 C1030.76248,351.215019 1013.77384,363.797397 1013.93037,345.12263 C1013.99475,337.484141 1017.56476,329.776355 1018.94015,322.320762 C1030.97673,253.806099 1055.22972,183.881655 1019.54736,118.324011 C993.783552,70.9901392 943.92882,38.3220771 891.13793,34.1824792 C797.241947,26.8189024 740.330446,107.041221 685.459269,172.028591 C684.588968,166.82115 683.371212,161.669373 681.65503,156.684588 C675.590672,139.062896 669.238803,120.170017 659.185933,104.203483 C639.968255,73.6779242 613.387427,42.6445717 580.614582,26.8325344 C564.16544,18.8964117 546.638411,9.65729261 528.261063,6.44921781 C518.990798,4.83041235 494.745575,0.392045408 479.218908,0.176204681 C469.100543,0.0353402064 458.360535,2.29825983 448.691752,3.62852031 C436.22002,5.34275008 423.280946,6.16521685 411.313191,10.5672317 C396.389296,16.0575382 381.186772,22.6270483 366.930035,29.6475519 C363.513214,31.3299736 360.185199,33.1396277 356.95154,35.1685305 C321.319133,57.5284938 293.374018,87.1020814 265.057028,117.691256 C242.671186,141.874506 220.284235,166.057755 197.898393,190.242141 C147.528584,244.654452 97.1598858,299.066763 46.7900771,353.479074 C31.3977297,368.110804 20.517851,385.439406 14.1515512,405.466018 C4.268523,424.715602 -0.262817137,445.461304 0.55753082,467.701987 C-0.262817137,489.941534 4.268523,510.687236 14.1515512,529.937957 C20.517851,549.963432 31.3977297,567.292034 46.7900771,581.923764 C57.4390595,590.343824 68.0880419,598.762748 78.7370242,607.181673 C103.356344,621.79409 129.91275,629.145171 158.405133,629.236051 C172.393231,627.312797 186.380219,625.389542 200.368317,623.466288 C227.107887,615.791446 250.326287,601.943559 270.021298,581.923764 C290.194754,560.131802 310.368209,538.338705 330.540554,516.546744 C326.243441,544.959335 322.654557,573.493479 319.904893,602.059432 C316.702316,635.318216 315.47568,668.830328 317.426088,702.211801 C319.276588,733.852915 323.535959,765.515614 328.848795,796.700055 C332.080233,815.671319 336.637105,834.348358 342.501649,852.644835 C347.805604,865.507807 353.110669,878.369642 358.414623,891.232613 C368.334284,910.056197 381.885012,925.163912 399.069026,936.554622 C408.916531,946.563952 420.525732,953.487895 433.895516,957.325316 C452.706905,967.439158 472.979157,972.076326 494.712273,971.236819 C508.699261,969.313564 522.686249,967.39031 536.674347,965.467055 C589.776059,958.164823 628.260258,899.732194 647.230388,854.320441 C666.920959,807.18537 685.271666,760.115052 707.113569,714.470418 C727.174906,736.157867 744.0703,757.90666 770.6811,772.223717 C807.248194,791.898167 829.84162,796.842055 870.561517,800.431828 C894.021914,802.500491 918.59239,798.331357 941.174715,791.999271 C964.429748,785.478609 987.957861,775.373855 1008.21346,761.713409 C1028.13715,748.276756 1047.27823,732.661247 1064.99397,716.21532 C1078.46811,703.706782 1091.44936,690.82109 1105.18436,678.707882 C1130.22773,660.777197 1156.83631,645.311641 1184.54498,632.088557 C1228.92703,614.803122 1275.08742,602.746714 1321.96048,594.970768 C1416.33269,584.569517 1511.63514,589.569069 1605.98958,598.175434 C1635.14357,600.834819 1664.26537,603.83955 1693.38606,606.84996 C1715.11917,607.688331 1735.39032,603.051163 1754.20171,592.937321 C1773.77128,586.422339 1790.70441,575.289501 1805.00222,559.536536 C1820.39457,544.905943 1831.27445,527.577341 1837.63964,507.550729 C1847.52267,488.300008 1852.05401,467.554307 1851.23477,445.31476 L1851.23477,445.31476 Z" id="path-1"></path>
    </defs>
    <g stroke="none" stroke-width="1" fill="none" fill-rule="evenodd">
        <g id="intro-line">
            <mask id="mask-2" fill="white">
                <use xlink:href="#path-1"></use>
            </mask>
            <use id="Fill-1" fill="#3ADD9F" xlink:href="#path-1"></use>
        </g>
        <g id="intro-icons">
            <g transform="translate(580.000000, 50.000000)" stroke="#121212" stroke-width="6">
                <g id="obj4" transform="translate(190.000000, 655.000000)" stroke-linecap="round">
                    <path d="M0,68.2351333 C0,30.5499852 30.5497315,0.000253703703 68.2348796,0.000253703703 C105.920028,0.000253703703 136.469759,30.5499852 136.469759,68.2351333 C136.469759,105.920281 105.920028,136.470013 68.2348796,136.470013 C30.5497315,136.470013 0,105.920281 0,68.2351333 L0,68.2351333 Z" id="Stroke-1"></path>
                    <path d="M68.2350065,118.694263 C40.3669231,118.694263 17.7746083,96.1032167 17.7746083,68.2351333 C17.7746083,40.36705 40.3669231,17.7760037 68.2350065,17.7760037 C96.1030898,17.7760037 118.694136,40.36705 118.694136,68.2351333 C118.694136,96.1032167 96.1030898,118.694263 68.2350065,118.694263 Z" id="Stroke-3"></path>
                </g>
                <path d="M209.806241,96.4151924 L48.2075962,96.4151924 C21.6934631,96.4151924 0,74.7217293 0,48.2075962 L0,48.2075962 C0,21.6934631 21.6934631,0 48.2075962,0 L209.806241,0 C236.320374,0 258.013837,21.6934631 258.013837,48.2075962 L258.013837,48.2075962 C258.013837,74.7217293 236.320374,96.4151924 209.806241,96.4151924 L209.806241,96.4151924 Z" id="obj3" stroke-linecap="round" stroke-linejoin="round"></path>
                <g id="Heart" transform="translate(713.000000, 506.000000)">
                    <path d="M54.5035781,95.9500643 L60.380231,90.6408251 C87.1563703,66.3083335 95.5244704,57.6886501 101.453902,46.654218 C104.497982,40.9893066 105.991826,35.5626763 105.991826,29.972752 C105.991826,14.8448651 94.1469605,3 79.0190736,3 C70.5687208,3 62.2517117,6.90912907 56.7799687,13.3346621 L54.4959128,16.0168562 L52.2118569,13.3346621 C46.7401139,6.90912907 38.4231048,3 29.972752,3 C14.8448651,3 3,14.8448651 3,29.972752 C3,35.5865767 4.50664331,41.0357713 7.57711904,46.7254563 C13.5233961,57.7440888 21.9503935,66.4100532 48.60923,90.5841827 L48.6135464,90.5881044 L54.5035781,95.9500643 Z" id="Shape"></path>
                </g>
            </g>
        </g>
    </g>
</svg>