<?xml version="1.0" encoding="UTF-8"?>
<svg width="1440px" height="1047px" viewBox="0 0 1440 1047" version="1.1" xmlns="http://www.w3.org/2000/svg" xmlns:xlink="http://www.w3.org/1999/xlink">
    <!-- Generator: Sketch 50.2 (55047) - http://www.bohemiancoding.com/sketch -->
    <title>Fill 1</title>
    <desc>Created with Sketch.</desc>
    <defs>
        <filter x="-4.3%" y="-7.8%" width="108.7%" height="115.9%" filterUnits="objectBoundingBox" id="filter-1">
            <feOffset dx="0" dy="2" in="SourceAlpha" result="shadowOffsetOuter1"></feOffset>
            <feGaussianBlur stdDeviation="30" in="shadowOffsetOuter1" result="shadowBlurOuter1"></feGaussianBlur>
            <feColorMatrix values="0 0 0 0 0   0 0 0 0 0   0 0 0 0 0  0 0 0 0.1 0" type="matrix" in="shadowBlurOuter1" result="shadowMatrixOuter1"></feColorMatrix>
            <feMerge>
                <feMergeNode in="shadowMatrixOuter1"></feMergeNode>
                <feMergeNode in="SourceGraphic"></feMergeNode>
            </feMerge>
        </filter>
    </defs>
    <g id="Page-1" stroke="none" stroke-width="1" fill="none" fill-rule="evenodd">
        <g id="Ultrastore-Project-Page" transform="translate(0.000000, -5204.000000)" fill="#FF5677">
            <g id="Browser" filter="url(#filter-1)" transform="translate(-326.000000, 5208.000000)">
                <path d="M2089.56795,936.874107 C2089.61871,922.856897 2089.68881,908.839687 2089.7722,894.822477 C2014.13027,854.002571 1941.60035,807.487455 1872.97525,755.536057 C1819.90299,713.655029 1769.44603,668.600317 1721.91859,620.482024 C1665.46118,563.321814 1608.55419,502.205085 1536.61888,464.285416 C1486.24772,437.731969 1435.79076,424.273753 1379.57506,418.311145 C1334.00427,413.477416 1288.01773,418.795123 1243.12373,427.026378 C1158.11674,442.611676 1077.527,481.385565 1003.34258,524.606002 C970.479687,543.752168 938.262161,564.180875 905.787215,584.154643 L977.234272,489.330063 C1010.90206,444.645593 1040.20819,401.454195 1059.27064,348.13677 C1081.22879,286.715134 1076.29911,208.781383 1036.73602,155.312715 C1016.21968,127.584411 992.951465,103.046731 961.698362,87.0887698 C938.206568,75.0933775 912.872944,65.0665654 886.785184,60.4772449 C837.489639,51.8019411 790.607569,51.5756814 740.997801,55.2490737 C630.894064,63.4028914 520.855589,79.0837753 412.965916,102.594212 C300.51155,127.099223 190.161269,160.705438 83.0317743,202.788527 C54.7299511,213.906709 31.4001025,227.576665 15.500419,254.778643 C1.32654498,279.027145 -4.67873983,314.765284 4.10862701,341.951532 C12.9576299,369.325322 29.9015005,395.735996 56.0388107,409.562035 C81.2938795,422.921035 115.316978,431.884306 143.11121,420.965764 C299.499994,359.533239 462.6627,316.554792 628.944673,292.804786 C667.04542,287.981947 705.25977,284.104074 743.567178,281.318781 C772.839467,279.189278 802.059788,277.421549 831.288569,279.609129 C835.262282,280.404063 839.208197,281.304262 843.123899,282.320615 C842.807259,283.31519 842.496662,284.312184 842.163102,285.301919 C827.923966,313.589217 809.25912,339.074284 790.18941,364.383908 C766.432944,395.913858 742.676477,427.442599 718.92001,458.972549 L646.031153,555.711262 C619.81287,590.508063 592.906922,626.010262 582.959347,669.6324 C569.303941,729.521035 582.417916,799.028731 631.703793,839.882516 C671.861491,873.169306 721.667044,890.418278 774.113279,884.517378 C794.757729,882.193074 815.665644,879.717527 835.56321,873.465742 C858.891851,866.135897 881.310453,855.602118 903.295185,844.944925 C935.997339,829.093438 967.571915,811.027753 998.692077,792.283289 C1066.71773,751.30851 1133.01636,706.63735 1205.51003,673.807919 C1238.76086,660.755035 1272.99062,650.56609 1308.1848,644.401422 C1329.04679,642.46551 1349.939,642.155764 1370.83604,643.807339 C1385.6021,646.62288 1400.07569,650.508013 1414.2399,655.541383 C1431.29737,663.961389 1447.44239,673.899875 1462.91425,684.967239 C1497.1561,713.317455 1527.79767,745.62177 1558.9698,777.282394 C1593.43402,812.287306 1629.30983,845.845123 1666.76521,877.627952 C1747.76827,946.362494 1834.36329,1008.9602 1926.12003,1062.52082 C1979.44972,1093.65149 2034.57168,1122.13359 2091.06777,1147.77232 C2089.57641,1077.48784 2089.31537,1007.17311 2089.56795,936.874107" id="Fill-1"></path>
            </g>
        </g>
    </g>
</svg>