<?xml version="1.0" encoding="UTF-8"?>
<svg width="1440px" height="846px" viewBox="0 0 1440 846" version="1.1" xmlns="http://www.w3.org/2000/svg" xmlns:xlink="http://www.w3.org/1999/xlink">
    <!-- Generator: Sketch 50.2 (55047) - http://www.bohemiancoding.com/sketch -->
    <title>Fill 1</title>
    <desc>Created with Sketch.</desc>
    <defs></defs>
    <g id="Page-1" stroke="none" stroke-width="1" fill="none" fill-rule="evenodd">
        <g id="Ultrastore-Project-Page" transform="translate(0.000000, -3962.000000)" fill="#FAEA28">
            <g id="Group-4" transform="translate(-322.000000, 3840.000000)">
                <path d="M2083.42548,786.78984 C2078.99698,752.732003 2061.15371,728.391546 2036.84003,705.792958 C1957.71708,632.250594 1878.59414,558.708231 1799.4725,485.165867 C1730.89859,421.429674 1662.32598,357.692175 1593.75337,293.955982 C1519.14118,224.606376 1449.03322,153.649395 1346.91522,128.017553 C1286.91109,112.955744 1223.76444,126.863271 1173.43069,161.963095 C1123.0656,197.086422 1097.11603,253.074304 1083.55505,310.998611 C1072.40415,358.632314 1074.73721,409.701441 1076.23992,458.1656 C1077.44235,496.977667 1080.30025,535.712695 1080.9896,574.53129 C1080.18014,600.519601 1077.8523,626.357752 1072.42504,651.776757 C1067.88817,665.201156 1062.4609,678.237749 1056.1119,690.923095 C1051.20687,698.184362 1045.96891,705.177951 1040.31447,711.884275 C1036.77245,714.883579 1033.12338,717.745779 1029.37377,720.487851 C1027.01068,721.559871 1024.62932,722.587495 1022.21792,723.548525 C1019.71122,723.928498 1017.198,724.254935 1014.67693,724.520002 C1010.45732,724.042098 1006.26513,723.421868 1002.08729,722.664534 C992.832088,719.240861 983.837996,715.268775 975.02799,710.803115 C950.882724,694.906933 928.766318,676.327439 907.835373,656.363851 C868.698212,616.246036 830.559815,574.174821 785.338685,540.98139 C734.772539,503.86549 673.791838,474.48615 610.424549,469.666633 C538.599759,464.203381 467.793316,479.919369 403.117843,511.232523 C346.339781,538.722445 293.859665,574.34718 241.02835,608.570846 C198.457533,636.146948 155.295291,662.789439 111.636932,688.605391 C74.7675517,709.92304 37.557417,730.642657 0,750.717233 C3.60468691,839.794086 8.18463682,928.830461 13.7411553,1017.80677 C40.4166218,1004.39021 66.9406418,990.674625 93.2857984,976.62216 C163.030811,939.422693 231.625614,899.974726 299.194236,858.961168 C355.746434,824.633041 410.222771,786.891688 466.802386,752.645824 C492.565257,738.340044 519.072304,725.648169 547.006343,716.268978 C557.36737,714.168029 567.779314,712.666418 578.316594,711.843796 C585.044211,712.456192 591.713078,713.367605 598.355833,714.593703 C606.749361,717.680492 614.931387,721.216459 622.946299,725.212049 C647.829214,741.812029 670.26418,761.579755 691.759133,782.395996 C716.427934,807.510762 740.659368,833.10996 766.467934,857.050858 C797.096675,885.462638 830.330034,908.040334 866.685019,928.588898 C934.052583,966.665828 1012.52013,977.886124 1087.1976,957.786739 C1157.84215,938.773736 1219.819,890.313494 1257.47434,827.518745 C1295.37381,764.316603 1318.47723,696.240103 1322.32867,622.164993 C1326.00908,551.368619 1319.03993,480.969191 1317.99156,410.298168 C1318.30359,399.430424 1318.89632,388.605769 1320.02303,377.842485 C1364.66449,408.369578 1402.75458,448.338538 1442.18288,484.985673 C1491.41473,530.744322 1540.64658,576.504276 1589.87843,622.26423 C1689.22209,714.600231 1788.56444,806.936233 1887.90679,899.272234 C1911.28438,921.001194 1947.59236,926.187626 1978.11405,923.600939 C2010.54187,920.852338 2038.78533,901.189072 2059.10004,877.009223 C2078.70975,853.668969 2087.28606,816.483865 2083.42548,786.78984" id="Fill-1"></path>
            </g>
        </g>
    </g>
</svg>