<svg width="145px" height="145px" viewBox="0 0 145 145" version="1.1" xmlns="http://www.w3.org/2000/svg" xmlns:xlink="http://www.w3.org/1999/xlink">
    <defs>
        <filter x="-33.2%" y="-22.9%" width="166.4%" height="166.4%" filterUnits="objectBoundingBox" id="filter-1">
            <feOffset dx="0" dy="11" in="SourceAlpha" result="shadowOffsetOuter1"></feOffset>
            <feGaussianBlur stdDeviation="10" in="shadowOffsetOuter1" result="shadowBlurOuter1"></feGaussianBlur>
            <feColorMatrix values="0 0 0 0 0   0 0 0 0 0   0 0 0 0 0  0 0 0 0.1 0" type="matrix" in="shadowBlurOuter1" result="shadowMatrixOuter1"></feColorMatrix>
            <feMerge>
                <feMergeNode in="shadowMatrixOuter1"></feMergeNode>
                <feMergeNode in="SourceGraphic"></feMergeNode>
            </feMerge>
        </filter>
    </defs>
    <g id="Page-1" stroke="none" stroke-width="1" fill="none" fill-rule="evenodd">
        <g id="LoadingScreen" transform="translate(-115.000000, -203.000000)" fill="#FFFFFF" fill-rule="nonzero">
            <g id="dumbbell" filter="url(#filter-1)" transform="translate(134.000000, 211.000000)">
                <path d="M105.145756,33.1921781 L96.2107755,24.257176 L102.927522,17.5429454 C103.521387,16.9497126 103.855251,16.1458621 103.855251,15.3050796 C103.855251,14.4642971 103.521387,13.6604466 102.927733,13.0670027 L93.934928,4.07417569 C92.7478321,2.88707693 90.6456699,2.88707693 89.458574,4.07417569 L82.7443595,10.7909387 L73.8081125,1.85424825 C71.3357875,-0.618082752 67.3270965,-0.618082752 64.8545604,1.85424825 C62.3818132,4.32657926 62.3818132,8.33527986 64.8545604,10.8078219 L96.191993,42.1457517 C98.6647401,44.6180828 102.673431,44.6180828 105.145756,42.1457517 C107.618081,39.6734207 107.618081,35.6647201 105.145756,33.1921781 Z" id="Shape"></path>
                <path d="M42.1454396,96.1920189 L10.808007,64.8542394 C8.33525987,62.3819202 4.32699096,62.3819202 1.85424381,64.8542394 C-0.618081269,67.3269806 -0.618081269,71.335662 1.85424381,73.8079811 L10.7907018,82.7444177 L4.08703931,89.4453206 C3.49338584,90.0389726 3.15952171,90.8426082 3.15952171,91.6833867 C3.15952171,92.5241651 3.49338584,93.3280118 4.08703931,93.9214528 L13.0798448,102.911282 C13.6979788,103.529837 14.5079475,103.839009 15.3179163,103.839009 C16.127885,103.839009 16.9378537,103.529837 17.5559878,102.911493 L24.2569067,96.2105903 L33.1918875,105.145761 C35.6642125,107.61808 39.6729035,107.61808 42.1454396,105.145761 C44.6181868,102.673019 44.6181868,98.664338 42.1454396,96.1920189 Z" id="Shape"></path>
                <polygon id="Shape" points="55.8364511 37 37 55.8627755 50.1635489 69 69 50.1368117"></polygon>
                <path d="M94.1788535,50.3866375 L54.6133815,10.8208502 C52.1856006,8.39304993 48.2489274,8.39304993 45.8211465,10.8208502 C43.3929512,13.2490649 43.3929512,17.1851478 45.8211465,19.6133625 L85.3866185,59.1791498 C87.8143994,61.6069501 91.7508653,61.6069501 94.1788535,59.1791498 C96.6070488,56.7513495 96.6070488,52.8148522 94.1788535,50.3866375 Z" id="Shape"></path>
                <path d="M59.1788535,85.3868447 L19.6131743,45.8208502 C17.1853934,43.3930499 13.2489274,43.3930499 10.8211465,45.8208502 C8.39295115,48.2490649 8.39295115,52.1855622 10.8211465,54.6133625 L50.3866185,94.1791498 C52.8143994,96.6069501 56.7508653,96.6069501 59.1788535,94.1791498 C61.6070488,91.7513495 61.6070488,87.8148522 59.1788535,85.3868447 Z" id="Shape"></path>
            </g>
        </g>
    </g>
</svg>